<svg width="37" height="49" viewBox="0 0 37 49" fill="none" xmlns="http://www.w3.org/2000/svg">
<path fill-rule="evenodd" clip-rule="evenodd" d="M1.71663 15.0049C3.33881 13.4428 5.96888 13.4428 7.59106 15.0049L35.2834 41.6716C36.9055 43.2337 36.9055 45.7663 35.2833 47.3284C33.6612 48.8905 31.0311 48.8905 29.4089 47.3284L1.71663 20.6618C0.0944553 19.0997 0.0944558 16.567 1.71663 15.0049Z" fill="white"/>
<path fill-rule="evenodd" clip-rule="evenodd" d="M0.5 4.5C0.5 2.29086 2.35974 0.5 4.65385 0.5L32.3462 0.5C34.6403 0.5 36.5 2.29086 36.5 4.5C36.5 6.70914 34.6403 8.5 32.3462 8.5L4.65385 8.5C2.35974 8.5 0.5 6.70914 0.5 4.5Z" fill="white"/>
<path fill-rule="evenodd" clip-rule="evenodd" d="M8.80769 21.8333L8.80769 44.5C8.80769 46.7091 6.94795 48.5 4.65385 48.5C2.35974 48.5 0.500003 46.7091 0.500002 44.5L0.5 17.8333C0.5 16.7725 0.937637 15.7551 1.71663 15.0049C2.49563 14.2548 3.55218 13.8333 4.65385 13.8333L32.3462 13.8333C34.6403 13.8333 36.5 15.6242 36.5 17.8333C36.5 20.0425 34.6403 21.8333 32.3462 21.8333L8.80769 21.8333Z" fill="white"/>
</svg>
